<svg width="75" height="75" viewBox="0 0 75 75" fill="none" xmlns="http://www.w3.org/2000/svg">
<path d="M24.6094 16.4062C24.6094 11.884 20.9297 8.20312 16.4062 8.20312C11.8828 8.20312 8.20312 11.884 8.20312 16.4062C8.20312 20.9285 11.8828 24.6094 16.4062 24.6094C20.9297 24.6094 24.6094 20.9285 24.6094 16.4062ZM10.5469 16.4062C10.5469 13.1754 13.1754 10.5469 16.4062 10.5469C19.6371 10.5469 22.2656 13.1754 22.2656 16.4062C22.2656 19.6371 19.6371 22.2656 16.4062 22.2656C13.1754 22.2656 10.5469 19.6371 10.5469 16.4062ZM31.6406 11.9754L28.8094 11.2688L30.3105 8.76562L24.0445 2.50078L21.5438 4.00195L20.8371 1.17188H11.9754L11.2688 4.00312L8.7668 2.50195L2.50078 8.76562L4.00195 11.2688L1.17188 11.9754V20.8371L4.00312 21.5438L2.50078 24.0469L7.89141 29.4375L10.0172 28.8516C6.72422 30.982 4.6875 34.6312 4.6875 38.6719V48.0469C4.6875 50.632 6.78984 52.7344 9.375 52.7344V69.7266C9.375 71.9883 11.2148 73.8281 13.4766 73.8281C14.625 73.8281 15.6609 73.3512 16.4062 72.5883C17.1516 73.3512 18.1875 73.8281 19.3359 73.8281C21.5977 73.8281 23.4375 71.9883 23.4375 69.7266V65.625H73.8281V14.0625H31.6406V11.9754ZM5.45273 23.6824L6.97148 21.1523L6.38555 19.7227L3.51562 19.0066V13.8059L6.38203 13.0898L6.97148 11.6602L5.45273 9.13008L9.13008 5.45156L11.659 6.97031L13.0887 6.38906L13.8059 3.51562H19.0066L19.5773 5.79961L19.8152 6.42656L21.1535 6.97031L23.6824 5.45156L27.3598 9.13008L25.841 11.6602L26.4305 13.0898L29.2969 13.8059V19.0066L27.0129 19.5773L26.3871 19.8176L25.841 21.1523L27.3598 23.6824L24.2285 26.8137L20.9801 25.9172L19.7238 26.4234L19.0066 29.2969H13.8059L13.2352 27.0129L12.9973 26.3859L11.8324 25.9184L8.58398 26.8148L5.45273 23.6824ZM17.5781 31.6406C17.5781 33.0715 16.8844 33.9844 16.4062 33.9844C15.9281 33.9844 15.2344 33.0715 15.2344 31.6406H17.5781ZM21.0938 36.3281V69.7266C21.0938 70.6957 20.3051 71.4844 19.3359 71.4844C18.3668 71.4844 17.5781 70.6957 17.5781 69.7266V46.875H15.2344V69.7266C15.2344 70.6957 14.4457 71.4844 13.4766 71.4844C12.5074 71.4844 11.7188 70.6957 11.7188 69.7266V36.3281H9.375V50.3906C8.08242 50.3906 7.03125 49.3395 7.03125 48.0469V38.6719C7.03125 35.2734 8.83008 32.2207 11.7059 30.5613L11.9754 31.6406H12.8906C12.8906 34.2691 14.4352 36.3281 16.4062 36.3281C18.3773 36.3281 19.9219 34.2691 19.9219 31.6406H20.8371L21.1066 30.5613C23.9824 32.2207 25.7812 35.2734 25.7812 38.6719V48.0469C25.7812 49.3395 24.7301 50.3906 23.4375 50.3906V36.3281H21.0938ZM23.4375 63.2812V52.7344C26.0227 52.7344 28.125 50.632 28.125 48.0469V38.6719C28.125 34.6312 26.0883 30.982 22.7953 28.8504L24.9211 29.4363L28.5762 25.7812H71.4844V63.2812H23.4375ZM71.4844 16.4062V23.4375H29.9461L28.8094 21.5438L31.6406 20.8371V16.4062H71.4844ZM19.9219 16.4062C19.9219 14.468 18.3445 12.8906 16.4062 12.8906C14.468 12.8906 12.8906 14.468 12.8906 16.4062C12.8906 18.3445 14.468 19.9219 16.4062 19.9219C18.3445 19.9219 19.9219 18.3445 19.9219 16.4062ZM15.2344 16.4062C15.2344 15.7594 15.7605 15.2344 16.4062 15.2344C17.052 15.2344 17.5781 15.7594 17.5781 16.4062C17.5781 17.0531 17.052 17.5781 16.4062 17.5781C15.7605 17.5781 15.2344 17.0531 15.2344 16.4062ZM36.3281 21.0938H33.9844V18.75H36.3281V21.0938ZM41.0156 21.0938H38.6719V18.75H41.0156V21.0938ZM45.7031 21.0938H43.3594V18.75H45.7031V21.0938ZM47.7035 30.1254L46.0465 28.4684L44.0461 30.4688H30.4688V42.1875H44.5312V33.2977L47.7035 30.1254ZM32.8125 32.8125H41.7023L37.5 37.0148L35.9848 35.4996L34.3277 37.1566L37.0148 39.8438H32.8125V32.8125ZM42.1875 39.8438H37.9852L42.1875 35.6414V39.8438ZM46.875 39.8438H69.1406V42.1875H46.875V39.8438ZM46.875 35.1562H69.1406V37.5H46.875V35.1562ZM66.7969 30.4688H69.1406V32.8125H66.7969V30.4688ZM64.4531 32.8125H62.1094V30.4688H64.4531V32.8125ZM59.7656 32.8125H49.2188V30.4688H59.7656V32.8125ZM30.4688 58.5938H44.5312V46.875H30.4688V58.5938ZM32.8125 49.2188H42.1875V56.25H32.8125V49.2188ZM66.7969 56.25H69.1406V58.5938H66.7969V56.25ZM62.1094 56.25H64.4531V58.5938H62.1094V56.25ZM46.875 56.25H59.7656V58.5938H46.875V56.25ZM46.875 51.5625H69.1406V53.9062H46.875V51.5625ZM46.875 46.875H69.1406V49.2188H46.875V46.875Z" fill="url(#paint0_linear_9_315)"/>
<defs>
<linearGradient id="paint0_linear_9_315" x1="37.5" y1="73.8281" x2="37.5" y2="1.17188" gradientUnits="userSpaceOnUse">
<stop stop-color="#9F2FFF"/>
<stop offset="1" stop-color="#0BB1D3"/>
</linearGradient>
</defs>
</svg>
