<svg width="51" height="50" viewBox="0 0 51 50" fill="none" xmlns="http://www.w3.org/2000/svg">
<path fill-rule="evenodd" clip-rule="evenodd" d="M25.0833 50C11.2761 50 0.083252 38.8071 0.083252 25C0.083252 11.1929 11.2761 0 25.0833 0C38.8904 0 50.0833 11.1929 50.0833 25C50.0833 38.8071 38.8904 50 25.0833 50ZM26.1643 18.7615C23.9252 19.6928 19.4502 21.6204 12.7394 24.5442C11.6496 24.9776 11.0788 25.4015 11.0268 25.816C10.939 26.5166 11.8163 26.7925 13.011 27.1681C13.1735 27.2192 13.3419 27.2722 13.5145 27.3283C14.6898 27.7104 16.2709 28.1573 17.0929 28.1751C17.8385 28.1912 18.6706 27.8838 19.5893 27.253C25.8595 23.0204 29.0962 20.8811 29.2994 20.835C29.4428 20.8024 29.6414 20.7615 29.776 20.8812C29.9106 21.0008 29.8974 21.2274 29.8831 21.2881C29.7962 21.6587 26.3525 24.8603 24.5703 26.5171C24.0147 27.0337 23.6206 27.4001 23.5401 27.4837C23.3596 27.6712 23.1757 27.8485 22.9989 28.0189C21.9069 29.0715 21.0881 29.8609 23.0442 31.15C23.9843 31.7695 24.7365 32.2817 25.487 32.7928C26.3065 33.3509 27.124 33.9076 28.1816 34.6009C28.451 34.7775 28.7084 34.961 28.959 35.1397C29.9128 35.8196 30.7697 36.4305 31.8283 36.3331C32.4435 36.2765 33.0789 35.6981 33.4016 33.973C34.1642 29.8961 35.6632 21.0626 36.0096 17.4226C36.04 17.1037 36.0018 16.6955 35.9711 16.5164C35.9405 16.3372 35.8764 16.0819 35.6435 15.893C35.3677 15.6692 34.9419 15.622 34.7515 15.6251C33.8856 15.6406 32.5572 16.1025 26.1643 18.7615Z" fill="#FFC20F"/>
</svg>
