<svg width="51" height="50" viewBox="0 0 51 50" fill="none" xmlns="http://www.w3.org/2000/svg">
<path d="M16.7999 20.1083C16.9333 26.6083 20.1833 30.5083 25.8833 30.5083H26.2166V26.7916C28.3083 27 29.8916 28.5333 30.5249 30.5083H33.4833C33.1798 29.386 32.6419 28.3408 31.9051 27.4416C31.1682 26.5424 30.249 25.8097 29.2083 25.2916C30.1409 24.7237 30.9464 23.9695 31.5744 23.0762C32.2024 22.183 32.6395 21.1698 32.8583 20.1H30.1749C29.5916 22.1666 27.8583 24.0416 26.2166 24.2166V20.1083H23.5249V27.3083C21.8583 26.8916 19.7583 24.875 19.6666 20.1083H16.7999Z" fill="#FFC20F"/>
<path fill-rule="evenodd" clip-rule="evenodd" d="M25.0833 0C38.8904 0 50.0833 11.1929 50.0833 25C50.0833 38.8071 38.8904 50 25.0833 50C11.2761 50 0.083252 38.8071 0.083252 25C0.083252 11.1929 11.2761 0 25.0833 0ZM12.5833 24.5C12.5833 18.8417 12.5833 16.0167 14.3333 14.25C16.1083 12.5 18.9333 12.5 24.5833 12.5H25.5833C31.2416 12.5 34.0666 12.5 35.8333 14.25C37.5833 16.025 37.5833 18.85 37.5833 24.5V25.5C37.5833 31.1583 37.5833 33.9833 35.8333 35.75C34.0583 37.5 31.2333 37.5 25.5833 37.5H24.5833C18.9249 37.5 16.0999 37.5 14.3333 35.75C12.5833 33.975 12.5833 31.15 12.5833 25.5V24.5Z" fill="#FFC20F"/>
</svg>
