<svg width="60" height="60" viewBox="0 0 60 60" fill="none" xmlns="http://www.w3.org/2000/svg">
<g clip-path="url(#clip0_9_173)">
<path d="M60 0H0V60H60V0Z" fill="#C3D5FF"/>
<path d="M43.9602 155.918C37.9839 155.918 32.9895 154.637 28.9768 152.076C25.0495 149.515 22.0614 145.971 20.0124 141.447C17.9634 136.922 16.7681 131.671 16.4266 125.695L29.2329 122.237C29.4891 125.908 30.044 129.451 30.8978 132.866C31.8369 136.281 33.331 139.099 35.38 141.318C37.429 143.453 40.2891 144.52 43.9602 144.52C47.7167 144.52 50.5341 143.496 52.4124 141.447C54.376 139.312 55.3578 136.281 55.3578 132.354C55.3578 127.658 54.2906 123.902 52.1563 121.084C50.0219 118.182 47.3325 115.279 44.0883 112.376L26.6717 97.0086C23.2566 94.0204 20.7381 90.7761 19.1159 87.2757C17.4938 83.69 16.6827 79.2931 16.6827 74.0852C16.6827 66.4868 18.8598 60.5959 23.214 56.4125C27.5681 52.2291 33.5017 50.1374 41.0148 50.1374C45.1128 50.1374 48.6985 50.6923 51.7721 51.8022C54.931 52.8267 57.5349 54.4489 59.5839 56.6686C61.7183 58.8884 63.3831 61.7058 64.5784 65.1208C65.859 68.4504 66.7128 72.3777 67.1397 76.9026L54.8456 80.2323C54.5895 76.8172 54.0772 73.701 53.3088 70.8836C52.5404 67.9809 51.1744 65.6757 49.2108 63.9682C47.3325 62.1753 44.6005 61.2789 41.0148 61.2789C37.429 61.2789 34.6116 62.2607 32.5626 64.2244C30.5989 66.1026 29.6171 68.92 29.6171 72.6765C29.6171 75.8354 30.1294 78.4394 31.1539 80.4884C32.2638 82.5374 34.014 84.6291 36.4045 86.7635L53.9491 102.131C57.8764 105.546 61.3341 109.644 64.3223 114.425C67.3104 119.121 68.8045 124.713 68.8045 131.201C68.8045 136.324 67.7373 140.764 65.6029 144.52C63.4685 148.191 60.5231 151.009 56.7665 152.972C53.0954 154.936 48.8266 155.918 43.9602 155.918ZM46.0092 345.918C39.0084 345.918 33.4163 344.552 29.2329 341.82C25.0495 339.088 22.0614 335.203 20.2685 330.166C18.4756 325.043 17.5792 319.067 17.5792 312.237V272.922C17.5792 266.092 18.4756 260.243 20.2685 255.377C22.1468 250.425 25.1349 246.669 29.2329 244.107C33.4163 241.461 39.0084 240.137 46.0092 240.137C53.01 240.137 58.5594 241.461 62.6574 244.107C66.7555 246.754 69.7009 250.511 71.4938 255.377C73.3721 260.243 74.3112 266.092 74.3112 272.922V312.365C74.3112 319.11 73.3721 325.001 71.4938 330.038C69.7009 335.075 66.7555 339.002 62.6574 341.82C58.5594 344.552 53.01 345.918 46.0092 345.918ZM46.0092 334.52C49.8511 334.52 52.7539 333.752 54.7175 332.215C56.6812 330.593 58.0045 328.373 58.6875 325.556C59.3705 322.653 59.712 319.281 59.712 315.439V269.976C59.712 266.134 59.3705 262.847 58.6875 260.115C58.0045 257.298 56.6812 255.163 54.7175 253.712C52.7539 252.175 49.8511 251.407 46.0092 251.407C42.1673 251.407 39.2219 252.175 37.1729 253.712C35.2092 255.163 33.8859 257.298 33.2029 260.115C32.5199 262.847 32.1784 266.134 32.1784 269.976V315.439C32.1784 319.281 32.5199 322.653 33.2029 325.556C33.8859 328.373 35.2092 330.593 37.1729 332.215C39.2219 333.752 42.1673 334.52 46.0092 334.52ZM19.5001 534.765V431.034H59.5839V441.407H33.9713V475.984H53.8211V486.229H33.9713V534.765H19.5001ZM30.8978 724.765V631.791H13.3531V621.034H62.4013V631.791H45.3689V724.765H30.8978ZM32.9468 914.765L16.0424 811.034H28.0804L39.2219 885.567L53.1808 811.418H63.4258L77.5128 885.951L88.3982 811.034H100.18L83.5318 914.765H73.0306L58.5594 837.927L43.9602 914.765H32.9468ZM13.8653 1104.77L35.8922 1001.03H49.8511L72.0061 1104.77H58.3033L53.565 1078.64H32.4345L27.44 1104.77H13.8653ZM34.3555 1068.27H51.644L42.9357 1021.52L34.3555 1068.27ZM19.5001 1294.77V1191.03H40.3744C47.2899 1191.03 53.01 1191.97 57.5349 1193.85C62.0598 1195.64 65.3895 1198.59 67.5239 1202.69C69.7436 1206.7 70.8535 1211.99 70.8535 1218.57C70.8535 1222.58 70.4266 1226.25 69.5729 1229.58C68.7191 1232.83 67.3531 1235.6 65.4748 1237.9C63.5966 1240.12 61.1207 1241.75 58.0472 1242.77L72.7745 1294.77H58.8155L45.2408 1246.1H33.9713V1294.77H19.5001ZM33.9713 1235.73H39.478C43.576 1235.73 46.9057 1235.22 49.4669 1234.19C52.0282 1233.17 53.9065 1231.42 55.1017 1228.94C56.297 1226.46 56.8946 1223.01 56.8946 1218.57C56.8946 1212.51 55.7847 1208.15 53.565 1205.5C51.3452 1202.77 46.9483 1201.41 40.3744 1201.41H33.9713V1235.73ZM19.5001 1484.77V1381.03H59.712V1391.79H33.9713V1426.11H54.8456V1436.36H33.9713V1474.39H59.9681V1484.77H19.5001Z" fill="white"/>
<path d="M52.6226 154.765V61.7912H35.0779V51.0338H84.1262V61.7912H67.0938V154.765H52.6226ZM41.225 344.765V241.034H81.4368V251.791H55.6961V286.112H76.5704V296.357H55.6961V334.392H81.693V344.765H41.225ZM65.6851 535.918C59.7088 535.918 54.7143 534.637 50.7017 532.076C46.7744 529.515 43.7862 525.971 41.7372 521.447C39.6882 516.922 38.493 511.671 38.1515 505.695L50.9578 502.237C51.2139 505.908 51.7688 509.451 52.6226 512.866C53.5617 516.281 55.0558 519.099 57.1048 521.318C59.1538 523.453 62.0139 524.52 65.6851 524.52C69.4416 524.52 72.259 523.496 74.1372 521.447C76.1009 519.312 77.0827 516.281 77.0827 512.354C77.0827 507.658 76.0155 503.902 73.8811 501.084C71.7467 498.182 69.0574 495.279 65.8131 492.376L48.3965 477.009C44.9815 474.02 42.4629 470.776 40.8408 467.276C39.2186 463.69 38.4076 459.293 38.4076 454.085C38.4076 446.487 40.5847 440.596 44.9388 436.412C49.293 432.229 55.2266 430.137 62.7396 430.137C66.8376 430.137 70.4234 430.692 73.4969 431.802C76.6558 432.827 79.2598 434.449 81.3088 436.669C83.4432 438.888 85.108 441.706 86.3033 445.121C87.5839 448.45 88.4376 452.378 88.8645 456.903L76.5704 460.232C76.3143 456.817 75.8021 453.701 75.0337 450.884C74.2653 447.981 72.8993 445.676 70.9357 443.968C69.0574 442.175 66.3254 441.279 62.7396 441.279C59.1538 441.279 56.3364 442.261 54.2874 444.224C52.3238 446.103 51.342 448.92 51.342 452.677C51.342 455.835 51.8542 458.439 52.8787 460.488C53.9886 462.537 55.7388 464.629 58.1293 466.763L75.674 482.131C79.6013 485.546 83.059 489.644 86.0471 494.425C89.0353 499.121 90.5293 504.713 90.5293 511.201C90.5293 516.324 89.4621 520.764 87.3278 524.52C85.1934 528.191 82.2479 531.009 78.4914 532.972C74.8202 534.936 70.5515 535.918 65.6851 535.918ZM52.6226 724.765V631.791H35.0779V621.034H84.1262V631.791H67.0938V724.765H52.6226ZM41.9934 914.765V811.034H56.2084V914.765H41.9934ZM41.225 1104.77V1001.03H51.0858L80.5404 1069.93V1001.03H92.5784V1104.77H83.3578L53.519 1033.95V1104.77H41.225ZM65.9412 1296.05C59.4526 1296.05 54.2447 1294.68 50.3175 1291.95C46.4756 1289.13 43.6582 1285.07 41.8653 1279.78C40.1578 1274.49 39.304 1268.13 39.304 1260.7V1226C39.304 1218.4 40.0724 1211.95 41.6092 1206.66C43.2313 1201.28 46.0487 1197.18 50.0613 1194.36C54.1594 1191.55 59.8368 1190.14 67.0938 1190.14C73.5823 1190.14 78.7902 1191.25 82.7175 1193.47C86.7301 1195.6 89.6329 1198.93 91.4258 1203.46C93.2187 1207.9 94.1151 1213.53 94.1151 1220.36V1224.2H80.5404V1221C80.5404 1216.48 80.2416 1212.8 79.644 1209.99C79.0463 1207.08 77.8084 1204.95 75.9301 1203.58C74.1372 1202.13 71.2772 1201.41 67.3499 1201.41C63.0811 1201.41 59.9649 1202.39 58.0013 1204.35C56.123 1206.32 54.9277 1209.01 54.4155 1212.42C53.9886 1215.75 53.7752 1219.55 53.7752 1223.82V1262.24C53.7752 1267.19 54.1167 1271.33 54.7997 1274.66C55.5681 1277.99 56.9768 1280.46 59.0258 1282.09C61.0748 1283.71 63.9775 1284.52 67.7341 1284.52C71.4906 1284.52 74.3934 1283.62 76.4424 1281.83C78.4914 1280.04 79.9001 1277.39 80.6685 1273.89C81.4368 1270.39 81.821 1266.04 81.821 1260.83V1253.66H68.6305V1243.41H94.8835V1294.77H85.791L84.3823 1282.86C83.0163 1286.7 80.8819 1289.86 77.9791 1292.33C75.0764 1294.81 71.0637 1296.05 65.9412 1296.05Z" fill="white"/>
<path d="M46.7601 8.39999H13.2397C11.8354 8.39999 10.6951 9.67714 10.6951 11.25V26.3743V33.93H49.3086V26.3743V11.25C49.3048 9.67714 48.1683 8.39999 46.7601 8.39999Z" fill="white"/>
<path d="M47.5484 10.5514H12.4553V31.9157H47.5484V10.5514Z" fill="#405A73"/>
<path d="M23.8277 11.0571H12.9067V28.8728L15.1988 31.4357H23.8277V11.0571Z" fill="white"/>
<path d="M49.3086 33.9343H10.6951V38.3228H49.3086V33.9343Z" fill="#3A5269"/>
<path d="M34.4502 38.3186H25.5535V42.9514H34.4502V38.3186Z" fill="#E0E0E0"/>
<path d="M30.8531 36.1243C30.8531 36.6514 30.4705 37.08 29.9998 37.08C29.5291 37.08 29.1465 36.6514 29.1465 36.1243C29.1465 35.5972 29.5291 35.1686 29.9998 35.1686C30.4705 35.1729 30.8531 35.5972 30.8531 36.1243Z" fill="white"/>
<path d="M36.0994 42.9514H23.9004V44.3571H36.0994V42.9514Z" fill="white"/>
<path d="M23.625 11.2886H13.1135V28.7743L15.2832 31.2043H23.625V11.2886Z" fill="#405A73"/>
<path d="M21.7536 14.4171H13.7256V15.0557H21.7536V14.4171Z" fill="#FF8592"/>
<path d="M23.0126 12.0214H13.7256V12.66H23.0126V12.0214Z" fill="#FF8592"/>
<path d="M22.297 13.2171H13.7256V13.8557H22.297V13.2171Z" fill="#FF8592"/>
<path d="M20.82 15.6129H13.7256V16.2471H20.82V15.6129Z" fill="#FF8592"/>
<path d="M23.0126 16.8086H13.7256V17.4471H23.0126V16.8086Z" fill="#40E5FF"/>
<path d="M23.0126 18.0043H13.7256V18.6428H23.0126V18.0043Z" fill="#40E5FF"/>
<path d="M19.5496 20.4H13.7256V21.0386H19.5496V20.4Z" fill="#40E5FF"/>
<path d="M20.82 19.2043H13.7256V19.8386H20.82V19.2043Z" fill="#40E5FF"/>
<path d="M23.0126 21.5957H13.7256V22.23H23.0126V21.5957Z" fill="#FFF380"/>
<path d="M21.6082 22.7914H13.7256V23.43H21.6082V22.7914Z" fill="#FFF380"/>
<path d="M23.0126 23.9914H13.7256V24.63H23.0126V23.9914Z" fill="#AADC00"/>
<path d="M21.4437 25.1871H13.7256V25.8214H21.4437V25.1871Z" fill="#AADC00"/>
<path d="M23.0126 26.3828H13.7256V27.0214H23.0126V26.3828Z" fill="#AADC00"/>
<path d="M18.857 27.5829H13.7256V28.2171H18.857V27.5829Z" fill="#AADC00"/>
<path d="M21.0304 28.7786H13.7256V29.4171H21.0304V28.7786Z" fill="#AADC00"/>
<path d="M15.2832 28.7743H13.2896L15.2832 31.0071V28.7743Z" fill="#E6E6E6"/>
<path d="M13.2895 28.7743H13.1135L15.2832 31.2043V31.0071L13.2895 28.7743Z" fill="white"/>
<path d="M46.9783 11.0571H24.3406V31.4357H46.9783V11.0571Z" fill="#40E5FF"/>
<path d="M46.6301 12.6557H24.6772V31.0071H46.6301V12.6557Z" fill="white"/>
<path d="M25.1593 12.2228C25.3495 12.2228 25.5037 12.0502 25.5037 11.8371C25.5037 11.6241 25.3495 11.4514 25.1593 11.4514C24.9691 11.4514 24.8149 11.6241 24.8149 11.8371C24.8149 12.0502 24.9691 12.2228 25.1593 12.2228Z" fill="white"/>
<path d="M26.2653 12.2228C26.4555 12.2228 26.6097 12.0502 26.6097 11.8371C26.6097 11.6241 26.4555 11.4514 26.2653 11.4514C26.0751 11.4514 25.9209 11.6241 25.9209 11.8371C25.9209 12.0502 26.0751 12.2228 26.2653 12.2228Z" fill="white"/>
<path d="M27.371 12.2228C27.5612 12.2228 27.7154 12.0502 27.7154 11.8371C27.7154 11.6241 27.5612 11.4514 27.371 11.4514C27.1808 11.4514 27.0266 11.6241 27.0266 11.8371C27.0266 12.0502 27.1808 12.2228 27.371 12.2228Z" fill="white"/>
<path d="M45.7422 11.4514H28.76V12.2186H45.7422V11.4514Z" fill="white"/>
<path d="M31.2091 13.2171H25.2971V19.8386H31.2091V13.2171Z" fill="#FF8592"/>
<path d="M31.2091 21H25.2971V27.6214H31.2091V21Z" fill="#405A73"/>
<path d="M46.0829 13.2171H31.7449V13.8557H46.0829V13.2171Z" fill="#405A73"/>
<path d="M46.0829 14.4171H31.7449V15.0514H46.0829V14.4171Z" fill="#405A73"/>
<path d="M46.0829 15.6129H31.7449V16.2471H46.0829V15.6129Z" fill="#405A73"/>
<path d="M46.0829 16.8086H31.7449V17.4471H46.0829V16.8086Z" fill="#405A73"/>
<path d="M46.0829 18.0043H31.7449V18.6386H46.0829V18.0043Z" fill="#405A73"/>
<path d="M38.9158 19.2043H31.7449V19.8386H38.9158V19.2043Z" fill="#405A73"/>
<path d="M46.0829 21H31.7449V21.6343H46.0829V21Z" fill="#FFF380"/>
<path d="M46.0829 22.1957H31.7449V22.83H46.0829V22.1957Z" fill="#FFF380"/>
<path d="M46.0829 23.3914H31.7449V24.0257H46.0829V23.3914Z" fill="#FFF380"/>
<path d="M46.0829 24.5871H31.7449V25.2257H46.0829V24.5871Z" fill="#FFF380"/>
<path d="M46.0829 25.7871H31.7449V26.4257H46.0829V25.7871Z" fill="#FFF380"/>
<path d="M46.0829 26.9828H31.7449V27.6171H46.0829V26.9828Z" fill="#FFF380"/>
<path d="M46.0867 28.1786H25.2627V28.8128H46.0867V28.1786Z" fill="#FFF380"/>
<path d="M38.2652 29.3786H25.2627V30.0129H38.2652V29.3786Z" fill="#FFF380"/>
<path d="M38.8661 22.0971C36.1071 25.0671 36.0153 29.9786 38.6671 33.0686C41.074 35.8757 44.9158 36.2143 47.6709 34.0286L49.9477 36.6857C50.0051 36.2871 50.1735 35.91 50.4528 35.61C50.7321 35.31 51.0765 35.1386 51.4324 35.0914L49.1556 32.4343C51.2181 29.4429 51.0727 25.1314 48.6658 22.32C46.014 19.2257 41.6288 19.1271 38.8661 22.0971ZM47.5638 32.2371C45.3214 34.6457 41.7627 34.5686 39.6084 32.0571C37.4579 29.5457 37.5268 25.56 39.7691 23.1471C42.0115 20.7386 45.5701 20.8157 47.7245 23.3271C49.8788 25.8386 49.8061 29.8286 47.5638 32.2371Z" fill="#2C4259"/>
<path opacity="0.2" d="M39.7691 23.1471C37.5267 25.56 37.4579 29.5457 39.6084 32.0571C41.7627 34.5686 45.3214 34.6457 47.5637 32.2371C49.8061 29.8286 49.875 25.8386 47.7244 23.3271C45.5739 20.82 42.0114 20.7386 39.7691 23.1471Z" fill="#3BDFFF"/>
<path d="M50.4529 35.6057C50.1735 35.9057 50.0052 36.2871 49.9478 36.6814C49.8636 37.2557 50.0128 37.8686 50.4031 38.3186L55.4044 44.1514C56.0626 44.9186 57.1455 44.94 57.8304 44.2071C57.9873 44.04 58.1098 43.8429 58.1939 43.6329L50.9771 35.22C50.7896 35.31 50.6098 35.4343 50.4529 35.6057Z" fill="#FFBB4E"/>
<path d="M51.4324 35.0871C51.2755 35.1086 51.1225 35.1557 50.9771 35.2243L58.1939 43.6371C58.4847 42.9386 58.3814 42.0814 57.8801 41.4943L52.8788 35.6614C52.4885 35.2071 51.949 35.0143 51.4324 35.0871Z" fill="#E6A947"/>
<path d="M47.6709 34.0286C47.6709 34.0286 48.6084 33.2614 49.1556 32.43L49.6071 32.9571L47.9196 34.32L47.6709 34.0286Z" fill="#223345"/>
<path d="M15.283 57.4628C14.6555 57.4628 14.1389 56.8886 14.1389 56.1814V47.2328C14.1389 46.53 14.6517 45.9514 15.283 45.9514H44.7167C45.3443 45.9514 45.8609 46.5257 45.8609 47.2328V56.1857C45.8609 56.8886 45.3481 57.4671 44.7167 57.4671H15.283V57.4628Z" fill="#E6E7E8"/>
<path d="M17.3187 47.3486H15.4819V49.3286H17.3187V47.3486Z" fill="white"/>
<path d="M20.357 47.3486H18.5203V49.3286H20.357V47.3486Z" fill="white"/>
<path d="M23.3992 47.3486H21.5586V49.3286H23.3992V47.3486Z" fill="white"/>
<path d="M26.4337 47.3486H24.5969V49.3286H26.4337V47.3486Z" fill="white"/>
<path d="M29.4717 47.3486H27.635V49.3286H29.4717V47.3486Z" fill="white"/>
<path d="M32.5101 47.3486H30.6733V49.3286H32.5101V47.3486Z" fill="white"/>
<path d="M35.5445 47.3486H33.7078V49.3286H35.5445V47.3486Z" fill="white"/>
<path d="M38.5828 47.3486H36.7461V49.3286H38.5828V47.3486Z" fill="white"/>
<path d="M41.625 47.3486H39.7844V49.3286H41.625V47.3486Z" fill="white"/>
<path d="M41.625 54.09H39.7844V56.0743H41.625V54.09Z" fill="white"/>
<path d="M44.6592 47.3486H42.8225V49.3286H44.6592V47.3486Z" fill="white"/>
<path d="M17.3187 50.7171H15.4819V52.6971H17.3187V50.7171Z" fill="white"/>
<path d="M20.357 50.7171H18.5203V52.6971H20.357V50.7171Z" fill="white"/>
<path d="M23.3992 50.7171H21.5586V52.6971H23.3992V50.7171Z" fill="white"/>
<path d="M26.4337 50.7171H24.5969V52.6971H26.4337V50.7171Z" fill="white"/>
<path d="M29.4717 50.7171H27.635V52.6971H29.4717V50.7171Z" fill="white"/>
<path d="M32.51 50.7171H30.6694V52.6971H32.51V50.7171Z" fill="white"/>
<path d="M35.5484 50.7171H33.7117V52.6971H35.5484V50.7171Z" fill="white"/>
<path d="M38.5828 50.7171H36.7461V52.6971H38.5828V50.7171Z" fill="white"/>
<path d="M20.3569 54.09H15.4819V56.07H20.3569V54.09Z" fill="white"/>
<path d="M35.5522 54.09H21.5586V56.07H35.5522V54.09Z" fill="white"/>
<path d="M43.19 50.7171H42.8227H39.7844V52.7014H42.8227V56.07H44.6594V52.7014V51.8657V50.7171H43.19Z" fill="white"/>
<path d="M38.5828 54.09H36.7461V56.07H38.5828V54.09Z" fill="white"/>
<path d="M17.0508 47.3486V49.0286H15.4819V49.3286H17.0508H17.3187V49.0286V47.3486H17.0508Z" fill="#D8D8D9"/>
<path d="M20.0891 47.3486V49.0286H18.5203V49.3286H20.0891H20.357V49.0286V47.3486H20.0891Z" fill="#D8D8D9"/>
<path d="M23.1275 47.3486V49.0286H21.5586V49.3286H23.1275H23.3953V49.0286V47.3486H23.1275Z" fill="#D8D8D9"/>
<path d="M26.1658 47.3486V49.0286H24.5969V49.3286H26.1658H26.4337V49.0286V47.3486H26.1658Z" fill="#D8D8D9"/>
<path d="M29.2039 47.3486V49.0286H27.635V49.3286H29.2039H29.4717V49.0286V47.3486H29.2039Z" fill="#D8D8D9"/>
<path d="M32.2422 47.3486V49.0286H30.6733V49.3286H32.2422H32.5101V49.0286V47.3486H32.2422Z" fill="#D8D8D9"/>
<path d="M35.2805 47.3486V49.0286H33.7117V49.3286H35.2805H35.5484V49.0286V47.3486H35.2805Z" fill="#D8D8D9"/>
<path d="M38.3189 47.3486V49.0286H36.75V49.3286H38.3189H38.5867V49.0286V47.3486H38.3189Z" fill="#D8D8D9"/>
<path d="M41.357 47.3486V49.0286H39.7881V49.3286H41.357H41.6248V49.0286V47.3486H41.357Z" fill="#D8D8D9"/>
<path d="M38.3189 54.09V55.77H36.75V56.07H38.3189H38.5867V55.77V54.09H38.3189Z" fill="#D8D8D9"/>
<path d="M41.357 54.09V55.77H39.7881V56.07H41.357H41.6248V55.77V54.09H41.357Z" fill="#D8D8D9"/>
<path d="M44.3953 47.3486V49.0286H42.8264V49.3286H44.3953H44.6632V49.0286V47.3486H44.3953Z" fill="#D8D8D9"/>
<path d="M17.0508 50.7171V52.3971H15.4819V52.7014H17.0508H17.3187V52.3971V50.7171H17.0508Z" fill="#D8D8D9"/>
<path d="M20.0891 50.7171V52.3971H18.5203V52.7014H20.0891H20.357V52.3971V50.7171H20.0891Z" fill="#D8D8D9"/>
<path d="M20.0891 54.09V55.77H15.4819V56.07H20.0891H20.3569V55.77V54.09H20.0891Z" fill="#D8D8D9"/>
<path d="M23.1275 50.7171V52.3971H21.5586V52.7014H23.1275H23.3953V52.3971V50.7171H23.1275Z" fill="#D8D8D9"/>
<path d="M26.1658 50.7171V52.3971H24.5969V52.7014H26.1658H26.4337V52.3971V50.7171H26.1658Z" fill="#D8D8D9"/>
<path d="M29.2039 50.7171V52.3971H27.635V52.7014H29.2039H29.4717V52.3971V50.7171H29.2039Z" fill="#D8D8D9"/>
<path d="M32.2422 50.7171V52.3971H30.6733V52.7014H32.2422H32.5101V52.3971V50.7171H32.2422Z" fill="#D8D8D9"/>
<path d="M35.2805 50.7171V52.3971H33.7117V52.7014H35.2805H35.5484V52.3971V50.7171H35.2805Z" fill="#D8D8D9"/>
<path d="M35.2805 54.09V55.77H21.5586V56.07H35.2805H35.5484V55.77V54.09H35.2805Z" fill="#D8D8D9"/>
<path d="M38.3189 50.7171V52.3971H36.75V52.7014H38.3189H38.5867V52.3971V50.7171H38.3189Z" fill="#D8D8D9"/>
<path d="M44.3953 50.7171V55.77H42.8264V56.07H44.3953H44.6632V55.77V50.7171H44.3953Z" fill="#D8D8D9"/>
<path d="M40.5497 38.3186H40.1365V45.9557H40.5497V38.3186Z" fill="white"/>
<path d="M34.4463 39.8443L25.5535 39.42V38.3186H34.4463V39.8443Z" fill="#C7C7C7"/>
<path d="M10.6951 52.0243C10.6951 53.5543 9.58922 54.7886 8.22698 54.7886H7.49228C6.13004 54.7886 5.02417 53.55 5.02417 52.0243V46.6328C5.02417 45.1071 6.13004 43.8686 7.49228 43.8686H8.22698C9.58922 43.8686 10.6951 45.1071 10.6951 46.6328V52.0243Z" fill="white"/>
<path d="M9.92211 47.3571H8.72441C8.66701 47.3571 8.62109 47.3057 8.62109 47.2414C8.62109 47.1771 8.66701 47.1257 8.72441 47.1257H9.92594C9.98334 47.1257 10.0293 47.1771 10.0293 47.2414C10.0254 47.3057 9.97951 47.3571 9.92211 47.3571Z" fill="#E0E0E0"/>
<path d="M6.97184 47.3571H5.77031C5.71291 47.3571 5.66699 47.3057 5.66699 47.2414C5.66699 47.1771 5.71291 47.1257 5.77031 47.1257H6.97184C7.02924 47.1257 7.07515 47.1771 7.07515 47.2414C7.07515 47.3057 7.02924 47.3571 6.97184 47.3571Z" fill="#E0E0E0"/>
<path d="M7.84814 52.4528C7.84814 52.9843 8.23462 53.4171 8.70911 53.4171C9.1836 53.4171 9.57008 52.9843 9.57008 52.4528V51.21C9.57008 50.6786 9.1836 50.2457 8.70911 50.2457C8.23462 50.2457 7.84814 50.6786 7.84814 51.21V52.4528Z" fill="#E6E7E8"/>
<path d="M7.84823 45.5143C7.63012 45.5143 7.4541 45.7114 7.4541 45.9557V48.5271C7.4541 48.7714 7.63012 48.9686 7.84823 48.9686C7.91329 48.9686 7.97068 48.9514 8.02808 48.9171V45.5571C7.97068 45.5314 7.91329 45.5143 7.84823 45.5143Z" fill="#FF8592"/>
<path d="M8.02417 45.5614V48.9214C8.15427 48.8486 8.24228 48.7029 8.24228 48.5271V45.9557C8.24228 45.7843 8.15427 45.6343 8.02417 45.5614Z" fill="#E07480"/>
<path d="M8.05487 43.8686H7.6416V37.74C7.6416 36.7243 8.37247 35.8972 9.2717 35.8972H10.6952V36.36H9.2717C8.60206 36.36 8.05487 36.9814 8.05487 37.7443V43.8686Z" fill="white"/>
<path d="M53.0014 47.7557C53.4108 47.7557 53.7437 48.1328 53.7437 48.5914V56.6314C53.7437 57.09 53.407 57.4671 53.0014 57.4671H49.8636C49.4542 57.4671 49.1174 57.0943 49.1174 56.6314V48.5914C49.1174 48.1328 49.4542 47.7557 49.8636 47.7557H53.0014Z" fill="#AADC00"/>
<path d="M53.0014 47.7557C53.4108 47.7557 53.7437 48.1328 53.7437 48.5914V56.6314C53.7437 57.09 53.407 57.4671 53.0014 57.4671H49.8636C49.4542 57.4671 49.1174 57.0943 49.1174 56.6314V48.5914C49.1174 48.1328 49.4542 47.7557 49.8636 47.7557H53.0014Z" fill="#AADC00"/>
<path d="M53.1428 43.6543H49.7219V47.7557H53.1428V43.6543Z" fill="white"/>
<path d="M51.0077 44.5757H50.4031V46.9843H51.0077V44.5757Z" fill="#ADADAD"/>
<path d="M52.4618 44.5757H51.8572V46.9843H52.4618V44.5757Z" fill="#ADADAD"/>
<path d="M52.7296 56.4429C52.5229 56.4429 52.3584 56.2543 52.3584 56.0272V49.2514C52.3584 49.02 52.5229 48.8357 52.7296 48.8357C52.9362 48.8357 53.1007 49.0243 53.1007 49.2514V56.0272C53.1007 56.2543 52.9362 56.4429 52.7296 56.4429Z" fill="#9AC700"/>
</g>
<defs>
<clipPath id="clip0_9_173">
<rect width="60" height="60" fill="white"/>
</clipPath>
</defs>
</svg>
